<?xml version="1.0" encoding="UTF-8" standalone="no"?>
<!-- Created with Inkscape (http://www.inkscape.org/) -->

<svg
   version="1.1"
   id="svg1"
   width="24"
   height="24"
   viewBox="0 0 24 24"
   sodipodi:docname="library.svg"
   inkscape:version="1.3.1 (91b66b0783, 2023-11-16)"
   xmlns:inkscape="http://www.inkscape.org/namespaces/inkscape"
   xmlns:sodipodi="http://sodipodi.sourceforge.net/DTD/sodipodi-0.dtd"
   xmlns="http://www.w3.org/2000/svg"
   xmlns:svg="http://www.w3.org/2000/svg">
  <defs
     id="defs1" />
  <sodipodi:namedview
     id="namedview1"
     pagecolor="#ffffff"
     bordercolor="#000000"
     borderopacity="0.25"
     inkscape:showpageshadow="2"
     inkscape:pageopacity="0.0"
     inkscape:pagecheckerboard="0"
     inkscape:deskcolor="#d1d1d1"
     showguides="true"
     inkscape:zoom="27.191655"
     inkscape:cx="14.655232"
     inkscape:cy="12.154464"
     inkscape:window-width="1920"
     inkscape:window-height="1017"
     inkscape:window-x="-8"
     inkscape:window-y="-8"
     inkscape:window-maximized="1"
     inkscape:current-layer="g1">
    <sodipodi:guide
       position="-2.7469074,128.32048"
       orientation="0,-1"
       id="guide10203"
       inkscape:locked="false" />
    <sodipodi:guide
       position="-2.2730474,109.2868"
       orientation="0,-1"
       id="guide10204"
       inkscape:locked="false" />
  </sodipodi:namedview>
  <g
     inkscape:groupmode="layer"
     inkscape:label="Image"
     id="g1"
     transform="translate(-238.33809,-13.486572)">
    <g
       id="g10207"
       inkscape:export-filename="g10207.png"
       inkscape:export-xdpi="96"
       inkscape:export-ydpi="96"
       style="fill:#ffffff"
       transform="matrix(0.7285409,0,0,0.908332,67.677898,3.7002783)">
      <path
         style="fill:#ffffff"
         d="M 238.33809,33.442422 V 14.40874"
         id="path10204" />
      <path
         style="fill:#ffffff"
         d="M 238.37794,33.42373 V 14.408224 c 0,0 0.0561,-0.905507 1.22861,-0.921456 1.17252,-0.01595 1.3403,0.949379 1.3403,0.949379 V 33.42373 c 0,0 -0.2097,0.886492 -1.39615,0.86561 -1.18645,-0.02088 -1.17276,-0.86561 -1.17276,-0.86561 z"
         id="path10206"
         sodipodi:nodetypes="cczcczc" />
      <path
         style="fill:#ffffff"
         d="M 245.97732,33.452017 V 14.436511 c 0,0 0.0561,-0.905507 1.22861,-0.921456 1.17252,-0.01595 1.3403,0.949379 1.3403,0.949379 v 18.987583 c 0,0 -0.2097,0.886492 -1.39615,0.86561 -1.18645,-0.02088 -1.17276,-0.86561 -1.17276,-0.86561 z"
         id="path10206-4"
         sodipodi:nodetypes="cczcczc" />
      <path
         style="fill:#ffffff"
         d="M 253.49218,33.481738 V 14.466232 c 0,0 0.0561,-0.905507 1.22861,-0.921456 1.17252,-0.01595 1.3403,0.949379 1.3403,0.949379 v 18.987583 c 0,0 -0.2097,0.886492 -1.39615,0.86561 -1.18645,-0.02088 -1.17276,-0.86561 -1.17276,-0.86561 z"
         id="path10206-9"
         sodipodi:nodetypes="cczcczc" />
      <path
         style="fill:#ffffff"
         d="m 255.18753,13.570537 8.34895,4.328052 c 0,0 -0.0504,6.385084 0,15.497218 0.002,0.401519 -0.46415,0.830673 -0.86561,0.837688 -7.34341,0.128308 -7.94203,0.114345 -7.94203,0.114345 l 0.0119,-2.068952 6.31057,-0.05585 V 18.903809 L 255.1875,15.94398 Z"
         id="path10207"
         sodipodi:nodetypes="ccsscccccc" />
    </g>
  </g>
</svg>
